# 3ds Max Wavefront OBJ Exporter v0.97b - (c)2007 guruware
# File Created: 19.06.2016 12:10:34

mtllib tree_leaves_group.mtl

#
# object tree_leaves_group
#

v  -1.3148 7.1735 4.1187
v  -0.6244 6.6542 8.2375
v  3.1131 6.7842 6.0925
v  0.4170 7.6504 1.4472
v  1.1624 5.3248 11.2705
v  4.9000 5.4548 9.1256
v  3.5136 3.1974 13.5399
v  6.5185 3.3020 11.8154
v  5.7353 0.9993 14.5742
v  8.2325 -0.3470 14.5808
v  6.8506 6.9142 3.9476
v  3.6178 7.3450 1.2879
v  8.6375 5.5848 6.9806
v  9.5234 3.4065 10.0909
v  9.4127 1.1272 12.4638
v  -0.9405 7.1735 -0.8403
v  -5.0470 6.6542 -1.6002
v  -4.3097 6.7842 2.6455
v  0.9776 7.6504 1.7008
v  -8.5083 5.3248 -0.9585
v  -7.7710 5.4548 3.2873
v  -11.4449 3.1974 0.4747
v  -10.8521 3.3020 3.8882
v  -13.1767 0.9993 2.2087
v  -14.0370 -0.3470 4.5530
v  -3.5725 6.9142 6.8913
v  0.0325 7.3450 4.7631
v  -7.0337 5.5848 7.5330
v  -10.2594 3.4065 7.3017
v  -12.4513 1.1272 6.3861
v  4.6200 7.0655 3.2615
v  8.7815 6.5365 2.9255
v  6.9872 6.8529 -0.9818
v  2.1204 7.6449 1.3173
v  11.9571 5.2575 1.3637
v  10.1627 5.5739 -2.5436
v  14.4189 3.2138 -0.8648
v  12.9763 3.4682 -4.0062
v  15.6387 1.1060 -3.0799
v  15.8652 -0.1286 -5.6241
v  5.1928 7.1693 -4.8891
v  2.2519 7.4830 -1.8952
v  8.3684 5.8903 -6.4510
v  11.5337 3.7226 -7.1476
v  13.8733 1.4173 -6.9244
v  3.1509 6.8220 -0.9959
v  1.4181 6.3028 -4.7957
v  -1.6370 6.4328 -1.7565
v  2.1695 7.2989 2.0328
v  -1.0929 4.9733 -7.2629
v  -4.1480 5.1033 -4.2237
v  -3.9513 2.8460 -8.8464
v  -6.4075 2.9505 -6.4030
v  -6.3651 0.6479 -9.2705
v  -8.7788 -0.6985 -8.6305
v  -4.6920 6.5628 1.2827
v  -0.8810 6.9936 3.0151
v  -7.2030 5.2333 -1.1845
v  -8.8637 3.0550 -3.9595
v  -9.3709 0.7758 -6.2802
v  -3.5381 4.1073 -1.9935
v  -2.8477 5.0281 2.0545
v  0.8898 4.4167 -0.0056
v  -1.8063 3.6417 -4.6670
v  -1.0609 4.8162 5.3593
v  2.6767 4.2047 3.2993
v  1.2903 3.5933 8.2194
v  4.2952 3.1017 6.5631
v  3.5121 1.8815 9.9431
v  6.0092 0.6186 10.4098
v  4.6273 3.8052 -2.0656
v  1.3945 3.3003 -4.7123
v  6.4142 3.5933 1.2392
v  7.3001 2.6101 4.9069
v  7.1894 1.2799 7.9162
v  1.3361 4.3215 -2.2049
v  5.2756 5.0126 -0.8960
v  5.2756 3.5381 -4.9473
v  -0.1645 3.4768 -4.9250
v  8.9713 4.3471 -0.6538
v  8.9713 2.8726 -4.7050
v  12.4320 2.5686 -0.9058
v  12.4320 1.3831 -4.1629
v  14.7886 0.3569 -1.5324
v  16.2603 -1.4740 -3.1230
v  5.2756 2.0635 -8.9985
v  1.3361 2.3755 -7.5516
v  8.9713 1.3980 -8.7563
v  12.4320 0.1976 -7.4200
v  14.7886 -1.0939 -5.5184
v  2.3449 2.3920 -2.9834
v  5.9910 1.3085 -4.7843
v  3.0245 2.1627 -7.7938
v  -0.5496 3.4600 -3.9026
v  8.1812 -0.2861 -7.3958
v  5.2147 0.5681 -10.4053
v  9.3593 -2.4856 -10.3921
v  6.9743 -1.7989 -12.8116
v  9.3840 -4.5745 -12.9364
v  8.5141 -5.6371 -15.4188
v  0.0579 3.0168 -10.8033
v  -1.5701 3.5193 -6.9552
v  2.2482 1.4223 -13.4148
v  4.5893 -1.1121 -15.2312
v  6.4652 -3.7341 -15.8974
v  0.9276 2.0277 -6.6795
v  -0.8052 0.2402 -10.0725
v  -3.8602 1.4019 -7.2610
v  -0.0537 3.5118 -3.9965
v  -3.3162 -1.8529 -11.9362
v  -6.3712 -0.6913 -9.1248
v  -6.1746 -4.3935 -12.6966
v  -8.6308 -3.4596 -10.4363
v  -8.5883 -6.6041 -12.3433
v  -11.0021 -7.6504 -11.2815
v  -6.9153 2.5635 -4.4496
v  -3.1042 3.5608 -2.9690
v  -9.4263 0.4704 -6.3133
v  -11.0870 -2.5257 -8.1759
v  -11.5942 -5.4612 -9.5771
v  3.7283 3.4869 4.6410
v  7.0940 1.6994 6.4265
v  7.9839 2.8610 2.3712
v  2.9934 4.9710 1.8803
v  10.2199 -0.3937 6.5129
v  11.1098 0.7679 2.4576
v  12.9975 -2.9343 5.4963
v  13.7130 -2.0004 2.2359
v  14.7720 -5.1449 3.8224
v  16.1402 -6.1912 1.5681
v  8.8739 4.0227 -1.6841
v  4.9029 5.0200 -0.7110
v  11.9998 1.9296 -1.5977
v  14.4285 -1.0665 -1.0245
v  15.6477 -4.0020 -0.1677
v  -2.8157 4.1203 5.6743
v  -2.5599 3.1081 9.7511
v  1.3219 2.8506 7.8929
v  -0.8135 4.5705 3.1939
v  -1.2541 1.2302 12.7391
v  2.6276 0.9727 10.8809
v  0.5521 -1.4482 14.9226
v  3.6729 -1.6552 13.4286
v  2.3240 -4.0579 15.8646
v  4.5814 -5.7759 15.8974
v  5.2036 2.5931 6.0347
v  2.3072 3.7804 3.2219
v  6.5093 0.7152 9.0227
v  6.7937 -1.8622 11.9347
v  6.1433 -4.3113 14.0363
v  0.8273 4.4572 0.1752
v  -3.1505 5.1483 1.3626
v  -0.8268 3.6738 4.6812
v  3.6166 3.6126 1.5427
v  -6.3168 4.4828 3.2840
v  -3.9931 3.0083 6.6025
v  -9.0071 2.7043 5.4754
v  -7.1389 1.5188 8.1435
v  -10.5782 0.4926 7.3403
v  -10.8713 -1.3383 9.4874
v  1.4969 2.1993 7.9998
v  3.8940 2.5112 4.5549
v  -1.6694 1.5338 9.9211
v  -5.2707 0.3333 10.8115
v  -8.2919 -0.9582 10.6055
v  -3.1638 2.4113 -6.6534
v  -7.2703 1.6634 -7.1900
v  -6.5330 3.2377 -3.2447
v  -1.2457 3.7285 -4.4286
v  -10.7316 0.6336 -6.1322
v  -9.9943 2.2079 -2.1870
v  -13.6682 -0.8752 -4.0579
v  -13.0754 0.3905 -0.8860
v  -15.4000 -2.3477 -1.6766
v  -16.2603 -2.8111 0.9867
v  -5.7958 4.8120 0.7005
v  -2.1908 4.4889 -1.4467
v  -9.2570 3.7822 1.7583
v  -12.4827 1.6562 2.2859
v  -14.6746 -0.7988 2.2051
# 180 vertices

vn 0.0176 0.9877 0.1553
vn 0.1010 0.9669 0.2345
vn 0.0954 0.9671 0.2358
vn 0.0384 0.9886 0.1455
vn 0.2032 0.8901 0.4080
vn 0.2073 0.8860 0.4149
vn 0.2993 0.7674 0.5670
vn 0.3091 0.7501 0.5846
vn 0.3590 0.6691 0.6507
vn 0.3537 0.6654 0.6574
vn 0.1144 0.9649 0.2365
vn 0.0970 0.9943 0.0432
vn 0.2987 0.7676 0.5670
vn 0.3525 0.6653 0.6581
vn -0.1519 0.9877 -0.0365
vn -0.2549 0.9669 0.0147
vn -0.2542 0.9671 0.0090
vn -0.1498 0.9886 -0.0137
vn -0.4529 0.8901 0.0514
vn -0.4607 0.8860 0.0529
vn -0.6352 0.7674 0.0873
vn -0.6550 0.7501 0.0905
vn -0.7343 0.6691 0.1148
vn -0.7387 0.6654 0.1075
vn -0.2614 0.9649 0.0266
vn -0.0737 0.9943 0.0764
vn -0.6350 0.7676 0.0868
vn -0.7390 0.6653 0.1062
vn 0.1620 0.9859 0.0410
vn 0.2484 0.9680 -0.0357
vn 0.2491 0.9680 -0.0300
vn 0.1541 0.9879 0.0195
vn 0.4300 0.8941 -0.1251
vn 0.4372 0.8901 -0.1287
vn 0.5964 0.7742 -0.2118
vn 0.6147 0.7573 -0.2207
vn 0.6847 0.6778 -0.2680
vn 0.6908 0.6738 -0.2622
vn 0.2516 0.9666 -0.0489
vn 0.0576 0.9972 -0.0479
vn 0.5964 0.7745 -0.2111
vn 0.6914 0.6737 -0.2610
vn -0.0572 0.9877 -0.1454
vn -0.1582 0.9669 -0.2004
vn -0.1532 0.9671 -0.2030
vn -0.0747 0.9886 -0.1306
vn -0.3018 0.8901 -0.3415
vn -0.3076 0.8860 -0.3471
vn -0.4359 0.7674 -0.4702
vn -0.4499 0.7501 -0.4847
vn -0.5152 0.6691 -0.5356
vn -0.5118 0.6654 -0.5435
vn -0.1717 0.9649 -0.1989
vn -0.1049 0.9943 -0.0166
vn -0.4353 0.7676 -0.4704
vn -0.5108 0.6653 -0.5444
vn 0.0176 0.9813 -0.1919
vn 0.1010 0.9888 -0.1103
vn 0.0954 0.9894 -0.1092
vn 0.0384 0.9788 -0.2014
vn 0.2032 0.9760 0.0789
vn 0.2073 0.9744 0.0868
vn 0.2993 0.9150 0.2704
vn 0.3091 0.9049 0.2928
vn 0.3590 0.8513 0.3827
vn 0.3537 0.8501 0.3902
vn 0.1144 0.9876 -0.1077
vn 0.0970 0.9491 -0.2995
vn 0.2987 0.9153 0.2703
vn 0.3525 0.8503 0.3908
vn -0.0279 0.9498 -0.3115
vn 0.0844 0.9363 -0.3408
vn 0.0827 0.9383 -0.3357
vn -0.0261 0.9425 -0.3331
vn 0.2959 0.8976 -0.3267
vn 0.3045 0.8951 -0.3258
vn 0.5000 0.8136 -0.2967
vn 0.5227 0.8012 -0.2913
vn 0.6177 0.7364 -0.2762
vn 0.6214 0.7364 -0.2676
vn 0.0931 0.9319 -0.3504
vn -0.0853 0.9005 -0.4263
vn 0.4996 0.8140 -0.2963
vn 0.6213 0.7369 -0.2663
vn 0.3196 0.9475 -0.0000
vn 0.3700 0.9233 -0.1027
vn 0.3727 0.9228 -0.0977
vn 0.3052 0.9521 -0.0173
vn 0.4951 0.8314 -0.2521
vn 0.4999 0.8267 -0.2581
vn 0.5999 0.6960 -0.3945
vn 0.6110 0.6773 -0.4097
vn 0.6467 0.5926 -0.4802
vn 0.6537 0.5873 -0.4772
vn 0.3682 0.9225 -0.1163
vn 0.1941 0.9799 -0.0459
vn 0.6001 0.6962 -0.3939
vn 0.6547 0.5871 -0.4762
vn -0.0572 0.8784 -0.4745
vn -0.1582 0.8400 -0.5190
vn -0.1532 0.8393 -0.5216
vn -0.0747 0.8843 -0.4608
vn -0.3018 0.7196 -0.6253
vn -0.3076 0.7138 -0.6292
vn -0.4359 0.5603 -0.7043
vn -0.4499 0.5391 -0.7120
vn -0.5152 0.4455 -0.7322
vn -0.5118 0.4393 -0.7383
vn -0.1717 0.8387 -0.5169
vn -0.1049 0.9287 -0.3557
vn -0.4353 0.5605 -0.7046
vn -0.5108 0.4390 -0.7391
vn 0.3190 0.8784 0.3558
vn 0.4273 0.8400 0.3344
vn 0.4246 0.8393 0.3394
vn 0.3255 0.8843 0.3346
vn 0.6059 0.7196 0.3391
vn 0.6128 0.7138 0.3390
vn 0.7610 0.5603 0.3270
vn 0.7769 0.5391 0.3252
vn 0.8420 0.4455 0.3043
vn 0.8427 0.4393 0.3112
vn 0.4371 0.8387 0.3249
vn 0.2899 0.9287 0.2312
vn 0.7607 0.5605 0.3275
vn 0.8424 0.4390 0.3125
vn 0.1525 0.9532 0.2611
vn 0.2248 0.9120 0.3432
vn 0.2192 0.9130 0.3441
vn 0.1739 0.9517 0.2529
vn 0.2994 0.8039 0.5140
vn 0.3022 0.7985 0.5207
vn 0.3623 0.6529 0.6652
vn 0.3679 0.6327 0.6814
vn 0.3993 0.5389 0.7417
vn 0.3930 0.5354 0.7476
vn 0.2375 0.9077 0.3459
vn 0.2411 0.9579 0.1561
vn 0.3617 0.6533 0.6651
vn 0.3917 0.5355 0.7482
vn 0.2015 0.9498 0.2391
vn 0.1263 0.9363 0.3276
vn 0.1248 0.9383 0.3224
vn 0.2125 0.9425 0.2579
vn -0.0550 0.8976 0.4373
vn -0.0626 0.8951 0.4415
vn -0.2394 0.8136 0.5298
vn -0.2611 0.8012 0.5385
vn -0.3476 0.7364 0.5805
vn -0.3555 0.7364 0.5756
vn 0.1247 0.9319 0.3405
vn 0.3144 0.9005 0.3003
vn -0.2393 0.8140 0.5293
vn -0.3562 0.7369 0.5746
vn -0.1519 0.9157 -0.3722
vn -0.2549 0.9136 -0.3169
vn -0.2542 0.9119 -0.3223
vn -0.1498 0.9243 -0.3510
vn -0.4529 0.8540 -0.2561
vn -0.4607 0.8506 -0.2533
vn -0.6352 0.7510 -0.1804
vn -0.6550 0.7359 -0.1715
vn -0.7343 0.6680 -0.1210
vn -0.7387 0.6620 -0.1265
vn -0.2614 0.9158 -0.3050
vn -0.0737 0.9605 -0.2683
vn -0.6350 0.7510 -0.1810
vn -0.7390 0.6615 -0.1278
# 168 vertex normals

vt 0.3923 0.1083 0.0000
vt 0.4688 0.3158 0.0000
vt 0.2420 0.3155 0.0000
vt 0.2425 0.0294 0.0000
vt 0.4685 0.5136 0.0000
vt 0.2419 0.5134 0.0000
vt 0.4240 0.7136 0.0000
vt 0.2418 0.7135 0.0000
vt 0.3533 0.8716 0.0000
vt 0.2418 0.9706 0.0000
vt 0.0153 0.3154 0.0000
vt 0.0925 0.1078 0.0000
vt 0.0152 0.5133 0.0000
vt 0.0596 0.7135 0.0000
vt 0.1303 0.8715 0.0000
# 15 texture coords

g tree_leaves_group
usemtl 18___Default
s 1
f 1/1/1 2/2/2 3/3/3 4/4/4 
f 2/2/2 5/5/5 6/6/6 3/3/3 
f 5/5/5 7/7/7 8/8/8 6/6/6 
f 7/7/7 9/9/9 10/10/10 8/8/8 
f 4/4/4 3/3/3 11/11/11 12/12/12 
f 3/3/3 6/6/6 13/13/5 11/11/11 
f 6/6/6 8/8/8 14/14/13 13/13/5 
f 8/8/8 10/10/10 15/15/14 14/14/13 
f 16/1/15 17/2/16 18/3/17 19/4/18 
f 17/2/16 20/5/19 21/6/20 18/3/17 
f 20/5/19 22/7/21 23/8/22 21/6/20 
f 22/7/21 24/9/23 25/10/24 23/8/22 
f 19/4/18 18/3/17 26/11/25 27/12/26 
f 18/3/17 21/6/20 28/13/19 26/11/25 
f 21/6/20 23/8/22 29/14/27 28/13/19 
f 23/8/22 25/10/24 30/15/28 29/14/27 
f 31/1/29 32/2/30 33/3/31 34/4/32 
f 32/2/30 35/5/33 36/6/34 33/3/31 
f 35/5/33 37/7/35 38/8/36 36/6/34 
f 37/7/35 39/9/37 40/10/38 38/8/36 
f 34/4/32 33/3/31 41/11/39 42/12/40 
f 33/3/31 36/6/34 43/13/33 41/11/39 
f 36/6/34 38/8/36 44/14/41 43/13/33 
f 38/8/36 40/10/38 45/15/42 44/14/41 
f 46/1/43 47/2/44 48/3/45 49/4/46 
f 47/2/44 50/5/47 51/6/48 48/3/45 
f 50/5/47 52/7/49 53/8/50 51/6/48 
f 52/7/49 54/9/51 55/10/52 53/8/50 
f 49/4/46 48/3/45 56/11/53 57/12/54 
f 48/3/45 51/6/48 58/13/47 56/11/53 
f 51/6/48 53/8/50 59/14/55 58/13/47 
f 53/8/50 55/10/52 60/15/56 59/14/55 
f 61/1/57 62/2/58 63/3/59 64/4/60 
f 62/2/58 65/5/61 66/6/62 63/3/59 
f 65/5/61 67/7/63 68/8/64 66/6/62 
f 67/7/63 69/9/65 70/10/66 68/8/64 
f 64/4/60 63/3/59 71/11/67 72/12/68 
f 63/3/59 66/6/62 73/13/61 71/11/67 
f 66/6/62 68/8/64 74/14/69 73/13/61 
f 68/8/64 70/10/66 75/15/70 74/14/69 
f 76/1/71 77/2/72 78/3/73 79/4/74 
f 77/2/72 80/5/75 81/6/76 78/3/73 
f 80/5/75 82/7/77 83/8/78 81/6/76 
f 82/7/77 84/9/79 85/10/80 83/8/78 
f 79/4/74 78/3/73 86/11/81 87/12/82 
f 78/3/73 81/6/76 88/13/75 86/11/81 
f 81/6/76 83/8/78 89/14/83 88/13/75 
f 83/8/78 85/10/80 90/15/84 89/14/83 
f 91/1/85 92/2/86 93/3/87 94/4/88 
f 92/2/86 95/5/89 96/6/90 93/3/87 
f 95/5/89 97/7/91 98/8/92 96/6/90 
f 97/7/91 99/9/93 100/10/94 98/8/92 
f 94/4/88 93/3/87 101/11/95 102/12/96 
f 93/3/87 96/6/90 103/13/89 101/11/95 
f 96/6/90 98/8/92 104/14/97 103/13/89 
f 98/8/92 100/10/94 105/15/98 104/14/97 
f 106/1/99 107/2/100 108/3/101 109/4/102 
f 107/2/100 110/5/103 111/6/104 108/3/101 
f 110/5/103 112/7/105 113/8/106 111/6/104 
f 112/7/105 114/9/107 115/10/108 113/8/106 
f 109/4/102 108/3/101 116/11/109 117/12/110 
f 108/3/101 111/6/104 118/13/103 116/11/109 
f 111/6/104 113/8/106 119/14/111 118/13/103 
f 113/8/106 115/10/108 120/15/112 119/14/111 
f 121/1/113 122/2/114 123/3/115 124/4/116 
f 122/2/114 125/5/117 126/6/118 123/3/115 
f 125/5/117 127/7/119 128/8/120 126/6/118 
f 127/7/119 129/9/121 130/10/122 128/8/120 
f 124/4/116 123/3/115 131/11/123 132/12/124 
f 123/3/115 126/6/118 133/13/117 131/11/123 
f 126/6/118 128/8/120 134/14/125 133/13/117 
f 128/8/120 130/10/122 135/15/126 134/14/125 
f 136/1/127 137/2/128 138/3/129 139/4/130 
f 137/2/128 140/5/131 141/6/132 138/3/129 
f 140/5/131 142/7/133 143/8/134 141/6/132 
f 142/7/133 144/9/135 145/10/136 143/8/134 
f 139/4/130 138/3/129 146/11/137 147/12/138 
f 138/3/129 141/6/132 148/13/131 146/11/137 
f 141/6/132 143/8/134 149/14/139 148/13/131 
f 143/8/134 145/10/136 150/15/140 149/14/139 
f 151/1/141 152/2/142 153/3/143 154/4/144 
f 152/2/142 155/5/145 156/6/146 153/3/143 
f 155/5/145 157/7/147 158/8/148 156/6/146 
f 157/7/147 159/9/149 160/10/150 158/8/148 
f 154/4/144 153/3/143 161/11/151 162/12/152 
f 153/3/143 156/6/146 163/13/145 161/11/151 
f 156/6/146 158/8/148 164/14/153 163/13/145 
f 158/8/148 160/10/150 165/15/154 164/14/153 
f 166/1/155 167/2/156 168/3/157 169/4/158 
f 167/2/156 170/5/159 171/6/160 168/3/157 
f 170/5/159 172/7/161 173/8/162 171/6/160 
f 172/7/161 174/9/163 175/10/164 173/8/162 
f 169/4/158 168/3/157 176/11/165 177/12/166 
f 168/3/157 171/6/160 178/13/159 176/11/165 
f 171/6/160 173/8/162 179/14/167 178/13/159 
f 173/8/162 175/10/164 180/15/168 179/14/167 
# 96 polygons

